# xmcd
#
# Track frame offsets:
#	150
#	13500
#	38092
#	57507
#	68514
#	81054
#	94189
#	108024
#	125707
#	140085
#	160111
#	178790
#	194015
#	211006
#
# Disc length: 3025 seconds
#
# Revision: 0
# Processed by: cddbd v1.5.2PL0 Copyright (c) Steve Scherf et al.
# Submitted via: EasyCDDAExtractor 10.0.5.1
#
DISCID=bd0bcf0e
DTITLE=Sergio Denis
DYEAR=2000
DGENRE=Latin
TTITLE0=Muchacha ojos de papel
TTITLE1=Solo el amor puede darnos
TTITLE2=Comenzando todo de nuevo
TTITLE3=Ella
TTITLE4=California somniolenta
TTITLE5=Adonde iras de madrugada
TTITLE6=Orgullosa Mary
TTITLE7=Un año de amor
TTITLE8=Hay una especie de silencio
TTITLE9=Cuando un hombre ama a una mujer
TTITLE10=Hechizo de mar
TTITLE11=No llores mas querida
TTITLE12=Amor de Septiembre
TTITLE13=Palabras
EXTD=
EXTT0=
EXTT1=
EXTT2=
EXTT3=
EXTT4=
EXTT5=
EXTT6=
EXTT7=
EXTT8=
EXTT9=
EXTT10=
EXTT11=
EXTT12=
EXTT13=
PLAYORDER=
